# xmcd CD database file
#
# Track frame offsets:
#	150
#	38318
#	69885
#	113275
#	142925
#	167993
#	202260
#	229413
#
# Disc length: 3420 seconds
#
# Revision: 0
# Processed by: cddbd v1.5.1PL2 Copyright (c) Steve Scherf et al.
# Submitted via: CDex 1.51
#
DISCID=620d5a08
DTITLE=Jonny King - In From The Cold
DYEAR=1994
DGENRE=Jazz
TTITLE0=El Jefe
TTITLE1=Fire and Brimstone
TTITLE2=In From the Cold
TTITLE3=The Giant and the Dwarf
TTITLE4=Sweet and Lovely
TTITLE5=Conundrum
TTITLE6=One Step Ahead
TTITLE7=Blues for the Confused
EXTD=YEAR: 1994
EXTT0=
EXTT1=
EXTT2=
EXTT3=
EXTT4=
EXTT5=
EXTT6=
EXTT7=
PLAYORDER=
